<svg xmlns="http://www.w3.org/2000/svg" xml:space="preserve" width="256" height="256"><g style="stroke:none;stroke-width:0;stroke-dasharray:none;stroke-linecap:butt;stroke-linejoin:miter;stroke-miterlimit:10;fill:none;fill-rule:nonzero;opacity:1" transform="matrix(2.81 0 0 2.81 1.407 1.407)"><circle cx="45" cy="45" r="45" style="stroke:none;stroke-width:1;stroke-dasharray:none;stroke-linecap:butt;stroke-linejoin:miter;stroke-miterlimit:10;fill:#f3f4f5;fill-rule:nonzero;opacity:1"/><path d="M62.345 44.996c0 9.581-7.685 17.347-17.165 17.347s-17.165-7.766-17.165-17.347S35.7 27.649 45.18 27.649s17.165 7.766 17.165 17.347z" style="stroke:none;stroke-width:1;stroke-dasharray:none;stroke-linecap:butt;stroke-linejoin:miter;stroke-miterlimit:10;fill:#c70000;fill-rule:nonzero;opacity:1"/><path d="m10.065 28.912 9.886-11.435 2.342 2.025-9.886 11.435-2.342-2.025zm3.238 2.799 9.886-11.435 2.342 2.025-9.886 11.435-2.342-2.025z" style="stroke:none;stroke-width:1;stroke-dasharray:none;stroke-linecap:butt;stroke-linejoin:miter;stroke-miterlimit:10;fill:#000;fill-rule:nonzero;opacity:1"/><path d="m10.065 28.912 9.886-11.435 2.342 2.025-9.886 11.435-2.342-2.025z" style="stroke:none;stroke-width:1;stroke-dasharray:none;stroke-linecap:butt;stroke-linejoin:miter;stroke-miterlimit:10;fill:#000;fill-rule:nonzero;opacity:1"/><path d="m10.065 28.912 9.886-11.435 2.342 2.025-9.886 11.435-2.342-2.025zm6.545 5.658 9.886-11.435 2.342 2.025-9.886 11.435-2.342-2.025z" style="stroke:none;stroke-width:1;stroke-dasharray:none;stroke-linecap:butt;stroke-linejoin:miter;stroke-miterlimit:10;fill:#000;fill-rule:nonzero;opacity:1"/><path d="m10.065 28.912 9.886-11.435 2.342 2.025-9.886 11.435-2.342-2.025z" style="stroke:none;stroke-width:1;stroke-dasharray:none;stroke-linecap:butt;stroke-linejoin:miter;stroke-miterlimit:10;fill:#000;fill-rule:nonzero;opacity:1"/><path d="m10.065 28.912 9.886-11.435 2.342 2.025-9.886 11.435-2.342-2.025zM66.935 20.251l9.808 11.502-2.356 2.009L64.58 22.26l2.355-2.009z" style="stroke:none;stroke-width:1;stroke-dasharray:none;stroke-linecap:butt;stroke-linejoin:miter;stroke-miterlimit:10;fill:#000;fill-rule:nonzero;opacity:1"/><path d="M28.265 41.939c.543 4.369 1.335 9.238 8.059 9.743 2.52.151 7.423-.6 9.106-7.467 2.208-6.597 8.86-8.494 13.386-4.917 2.566 1.674 3.276 4.333 3.46 6.329-.205 6.41-3.885 11.958-8.605 14.433-5.427 3.226-12.946 3.293-19.533-1.594-2.968-2.786-7.116-7.92-5.873-16.527z" style="stroke:none;stroke-width:1;stroke-dasharray:none;stroke-linecap:butt;stroke-linejoin:miter;stroke-miterlimit:10;fill:#3d5897;fill-rule:nonzero;opacity:1"/><path d="m19.61 60.79-3.93-4.61-2.35 2.01 3.94 4.62zM21.39 62.88l-2.3 2.07 4.04 4.74 2.36-2.01zM18.938 53.403l9.808 11.502-2.356 2.009-9.808-11.502 2.356-2.009zm-6.582 5.613 9.808 11.502-2.356 2.009L10 61.025l2.356-2.009zM72.87 62.45l3.8-4.52-2.33-1.94-3.76 4.49zM68.77 62.63l-3.93 4.69 2.33 1.93 3.94-4.69zM65.49 59.88l-3.94 4.7 2.33 1.94 3.95-4.71zM69.68 59.61l3.7-4.42-2.33-1.93-3.67 4.37zM72 65.3 68.06 70l2.33 1.93 3.95-4.71zM76.05 65.18l3.84-4.57-2.33-1.94-3.81 4.54zM75.83 24.09l-2.3 2.07 4.11 4.82 2.36-2zM74.11 22.06l-3.92-4.59-2.35 2.01 3.92 4.61zM65.25 29.71l2.31-1.99-3.95-4.63-2.36 2.01 4.04 4.73zM67.09 31.94l3.97 4.66 2.36-2.01-4.02-4.72z" style="stroke:none;stroke-width:1;stroke-dasharray:none;stroke-linecap:butt;stroke-linejoin:miter;stroke-miterlimit:10;fill:#000;fill-rule:nonzero;opacity:1"/></g></svg>